<svg width="9" height="7" viewBox="0 0 9 7" fill="none" xmlns="http://www.w3.org/2000/svg">
<path d="M2.93004 7.00002C2.86148 6.9998 2.7937 6.98548 2.73091 6.95795C2.66812 6.93043 2.61166 6.89029 2.56504 6.84002L0.135043 4.25502C0.0442063 4.15821 -0.00445464 4.02929 -0.000235074 3.89661C0.0039845 3.76392 0.0607389 3.63835 0.157543 3.54752C0.254347 3.45668 0.383271 3.40802 0.515953 3.41224C0.648635 3.41646 0.774206 3.47321 0.865043 3.57002L2.92504 5.76502L7.13004 1.16502C7.17272 1.11188 7.2258 1.06802 7.28604 1.03615C7.34628 1.00427 7.4124 0.985048 7.48034 0.979656C7.54828 0.974264 7.6166 0.982818 7.68111 1.00479C7.74562 1.02677 7.80496 1.0617 7.85548 1.10744C7.90601 1.15318 7.94664 1.20877 7.9749 1.27079C8.00316 1.33281 8.01843 1.39995 8.0198 1.46809C8.02116 1.53622 8.00858 1.60392 7.98283 1.66702C7.95707 1.73012 7.91869 1.78729 7.87004 1.83502L3.30004 6.83502C3.25386 6.88619 3.1976 6.92727 3.13479 6.95567C3.07198 6.98406 3.00397 6.99916 2.93504 7.00002H2.93004Z" fill="white"/>
</svg>
