<svg width="14" height="16" viewBox="0 0 14 16" fill="none" xmlns="http://www.w3.org/2000/svg">
<path d="M10 7C10 7.79565 9.68393 8.55871 9.12132 9.12132C8.55871 9.68393 7.79565 10 7 10C6.20435 10 5.44129 9.68393 4.87868 9.12132C4.31607 8.55871 4 7.79565 4 7C4 6.20435 4.31607 5.44129 4.87868 4.87868C5.44129 4.31607 6.20435 4 7 4C7.79565 4 8.55871 4.31607 9.12132 4.87868C9.68393 5.44129 10 6.20435 10 7ZM9 7C9 6.46957 8.78929 5.96086 8.41421 5.58579C8.03914 5.21071 7.53043 5 7 5C6.46957 5 5.96086 5.21071 5.58579 5.58579C5.21071 5.96086 5 6.46957 5 7C5 7.53043 5.21071 8.03914 5.58579 8.41421C5.96086 8.78929 6.46957 9 7 9C7.53043 9 8.03914 8.78929 8.41421 8.41421C8.78929 8.03914 9 7.53043 9 7Z" fill="black"/>
<path d="M11.9499 11.955C13.2629 10.6414 14.0004 8.86021 14.0004 7.003C14.0004 5.14579 13.2629 3.36459 11.9499 2.051C11.3001 1.40068 10.5284 0.884786 9.67905 0.532808C8.82971 0.180831 7.91933 -0.000333786 6.99995 -0.000333786C6.08056 -0.000333786 5.17018 0.180831 4.32084 0.532808C3.47149 0.884786 2.69983 1.40068 2.04995 2.051C0.737039 3.36459 -0.000488281 5.14579 -0.000488281 7.003C-0.000488281 8.86021 0.737039 10.6414 2.04995 11.955L3.57095 13.454L5.61395 15.439L5.74695 15.557C6.52195 16.185 7.65695 16.145 8.38695 15.439L10.8219 13.069L11.9499 11.955V11.955ZM2.75495 2.756C3.31232 2.19838 3.97409 1.75604 4.70246 1.45424C5.43083 1.15244 6.21153 0.99711 6.99995 0.99711C7.78836 0.99711 8.56906 1.15244 9.29743 1.45424C10.0258 1.75604 10.6876 2.19838 11.2449 2.756C12.3397 3.85145 12.9691 5.32732 13.0019 6.87565C13.0347 8.42399 12.4683 9.92518 11.4209 11.066L11.2449 11.25L9.92395 12.554L7.69395 14.722L7.59995 14.802C7.42705 14.9323 7.21644 15.0028 6.99995 15.0028C6.78345 15.0028 6.57285 14.9323 6.39995 14.802L6.30695 14.722L3.32695 11.817L2.75495 11.25L2.57895 11.067C1.53159 9.92618 0.965225 8.42499 0.998018 6.87665C1.03081 5.32832 1.66023 3.85245 2.75495 2.757V2.756Z" fill="black"/>
</svg>
