<svg width="16" height="12" viewBox="0 0 16 12" fill="none" xmlns="http://www.w3.org/2000/svg">
<path d="M15 12C15 12 16 12 16 11C16 10 15 7 11 7C7 7 6 10 6 11C6 12 7 12 7 12H15ZM7.022 11C7.01461 10.999 7.00727 10.9976 7 10.996C7.001 10.732 7.167 9.966 7.76 9.276C8.312 8.629 9.282 8 11 8C12.717 8 13.687 8.63 14.24 9.276C14.833 9.966 14.998 10.733 15 10.996L14.992 10.998C14.9874 10.9988 14.9827 10.9995 14.978 11H7.022ZM11 5C11.5304 5 12.0391 4.78929 12.4142 4.41421C12.7893 4.03914 13 3.53043 13 3C13 2.46957 12.7893 1.96086 12.4142 1.58579C12.0391 1.21071 11.5304 1 11 1C10.4696 1 9.96086 1.21071 9.58579 1.58579C9.21071 1.96086 9 2.46957 9 3C9 3.53043 9.21071 4.03914 9.58579 4.41421C9.96086 4.78929 10.4696 5 11 5ZM14 3C14 3.39397 13.9224 3.78407 13.7716 4.14805C13.6209 4.51203 13.3999 4.84274 13.1213 5.12132C12.8427 5.3999 12.512 5.62087 12.1481 5.77164C11.7841 5.9224 11.394 6 11 6C10.606 6 10.2159 5.9224 9.85195 5.77164C9.48797 5.62087 9.15726 5.3999 8.87868 5.12132C8.6001 4.84274 8.37913 4.51203 8.22836 4.14805C8.0776 3.78407 8 3.39397 8 3C8 2.20435 8.31607 1.44129 8.87868 0.87868C9.44129 0.316071 10.2044 0 11 0C11.7956 0 12.5587 0.316071 13.1213 0.87868C13.6839 1.44129 14 2.20435 14 3ZM6.936 7.28C6.53598 7.15404 6.12364 7.07123 5.706 7.033C5.47133 7.01068 5.23573 6.99967 5 7C1 7 0 10 0 11C0 11.667 0.333 12 1 12H5.216C5.06776 11.6878 4.99382 11.3455 5 11C5 9.99 5.377 8.958 6.09 8.096C6.333 7.802 6.616 7.527 6.936 7.28ZM4.92 8C4.32815 8.88927 4.00844 9.93182 4 11H1C1 10.74 1.164 9.97 1.76 9.276C2.305 8.64 3.252 8.02 4.92 8.001V8ZM1.5 3.5C1.5 2.70435 1.81607 1.94129 2.37868 1.37868C2.94129 0.816071 3.70435 0.5 4.5 0.5C5.29565 0.5 6.05871 0.816071 6.62132 1.37868C7.18393 1.94129 7.5 2.70435 7.5 3.5C7.5 4.29565 7.18393 5.05871 6.62132 5.62132C6.05871 6.18393 5.29565 6.5 4.5 6.5C3.70435 6.5 2.94129 6.18393 2.37868 5.62132C1.81607 5.05871 1.5 4.29565 1.5 3.5ZM4.5 1.5C3.96957 1.5 3.46086 1.71071 3.08579 2.08579C2.71071 2.46086 2.5 2.96957 2.5 3.5C2.5 4.03043 2.71071 4.53914 3.08579 4.91421C3.46086 5.28929 3.96957 5.5 4.5 5.5C5.03043 5.5 5.53914 5.28929 5.91421 4.91421C6.28929 4.53914 6.5 4.03043 6.5 3.5C6.5 2.96957 6.28929 2.46086 5.91421 2.08579C5.53914 1.71071 5.03043 1.5 4.5 1.5Z" fill="black"/>
</svg>
