<svg width="13" height="16" viewBox="0 0 13 16" fill="none" xmlns="http://www.w3.org/2000/svg">
<path d="M10.8287 15.4054H2.27432C2.09425 15.4011 1.91677 15.3614 1.75204 15.2884C1.58731 15.2154 1.43855 15.1106 1.31426 14.98C1.18997 14.8494 1.09259 14.6956 1.02768 14.5273C0.962764 14.359 0.931594 14.1795 0.935947 13.9991V4.73193H1.87187V13.9991C1.86741 14.0564 1.87429 14.114 1.89212 14.1686C1.90995 14.2232 1.93839 14.2738 1.97579 14.3173C2.01319 14.3609 2.05882 14.3966 2.11005 14.4224C2.16128 14.4483 2.21711 14.4637 2.27432 14.4679H10.8287C10.8859 14.4637 10.9417 14.4483 10.9929 14.4224C11.0442 14.3966 11.0898 14.3609 11.1272 14.3173C11.1646 14.2738 11.193 14.2232 11.2109 14.1686C11.2287 14.114 11.2356 14.0564 11.2311 13.9991V4.73193H12.167V13.9991C12.1714 14.1795 12.1402 14.359 12.0753 14.5273C12.0104 14.6956 11.913 14.8494 11.7887 14.98C11.6644 15.1106 11.5157 15.2154 11.351 15.2884C11.1862 15.3614 11.0088 15.4011 10.8287 15.4054Z" fill="white"/>
<path d="M12.532 3.68668H0.467963C0.343851 3.68668 0.224823 3.63729 0.137063 3.54938C0.0493031 3.46147 0 3.34225 0 3.21793C0 3.09361 0.0493031 2.97438 0.137063 2.88647C0.224823 2.79856 0.343851 2.74918 0.467963 2.74918H12.532C12.6561 2.74918 12.7752 2.79856 12.8629 2.88647C12.9507 2.97438 13 3.09361 13 3.21793C13 3.34225 12.9507 3.46147 12.8629 3.54938C12.7752 3.63729 12.6561 3.68668 12.532 3.68668Z" fill="white"/>
<path d="M7.95508 5.56165H8.891V12.5929H7.95508V5.56165Z" fill="white"/>
<path d="M4.21094 5.56165H5.14686V12.5929H4.21094V5.56165Z" fill="white"/>
<path d="M8.89056 2.21477H8.00144V1.3429H5.10007V2.21477H4.21094V1.3429C4.21064 1.10217 4.30279 0.870548 4.46832 0.69602C4.63384 0.521492 4.86004 0.417432 5.10007 0.405396H8.00144C8.24146 0.417432 8.46766 0.521492 8.63318 0.69602C8.79871 0.870548 8.89086 1.10217 8.89056 1.3429V2.21477Z" fill="white"/>
</svg>
