<svg width="15" height="14" viewBox="0 0 15 14" fill="none" xmlns="http://www.w3.org/2000/svg">
<path d="M10.625 1.2804C10.7892 1.11625 10.984 0.986036 11.1985 0.897197C11.413 0.808359 11.6429 0.762634 11.875 0.762634C12.1071 0.762634 12.337 0.808359 12.5515 0.897197C12.766 0.986036 12.9608 1.11625 13.125 1.2804C13.2892 1.44455 13.4194 1.63943 13.5082 1.85391C13.597 2.06838 13.6428 2.29825 13.6428 2.5304C13.6428 2.76255 13.597 2.99242 13.5082 3.2069C13.4194 3.42137 13.2892 3.61625 13.125 3.7804L4.6875 12.2179L1.25 13.1554L2.1875 9.7179L10.625 1.2804Z" stroke="white" stroke-width="1.25" stroke-linecap="round" stroke-linejoin="round"/>
</svg>
