<svg width="15" height="15" viewBox="0 0 15 15" fill="none" xmlns="http://www.w3.org/2000/svg">
<path d="M10.625 1.87501C10.7892 1.71085 10.984 1.58064 11.1985 1.4918C11.413 1.40296 11.6429 1.35724 11.875 1.35724C12.1071 1.35724 12.337 1.40296 12.5515 1.4918C12.766 1.58064 12.9608 1.71085 13.125 1.87501C13.2892 2.03916 13.4194 2.23404 13.5082 2.44851C13.597 2.66299 13.6428 2.89286 13.6428 3.12501C13.6428 3.35715 13.597 3.58703 13.5082 3.8015C13.4194 4.01598 13.2892 4.21085 13.125 4.37501L4.6875 12.8125L1.25 13.75L2.1875 10.3125L10.625 1.87501Z" stroke="black" stroke-width="1.25" stroke-linecap="round" stroke-linejoin="round"/>
</svg>
