<svg width="13" height="15" viewBox="0 0 13 15" fill="none" xmlns="http://www.w3.org/2000/svg">
<path d="M10.8292 15H2.27481C2.09473 14.9957 1.91726 14.956 1.75253 14.883C1.5878 14.81 1.43904 14.7052 1.31475 14.5746C1.19046 14.444 1.09308 14.2902 1.02816 14.1219C0.963252 13.9536 0.932082 13.7741 0.936436 13.5937V4.32654H1.87236V13.5937C1.86789 13.651 1.87477 13.7086 1.89261 13.7632C1.91044 13.8178 1.93888 13.8684 1.97628 13.9119C2.01368 13.9555 2.05931 13.9912 2.11054 14.017C2.16177 14.0429 2.2176 14.0583 2.27481 14.0625H10.8292C10.8864 14.0583 10.9422 14.0429 10.9934 14.017C11.0447 13.9912 11.0903 13.9555 11.1277 13.9119C11.1651 13.8684 11.1935 13.8178 11.2114 13.7632C11.2292 13.7086 11.2361 13.651 11.2316 13.5937V4.32654H12.1675V13.5937C12.1719 13.7741 12.1407 13.9536 12.0758 14.1219C12.0109 14.2902 11.9135 14.444 11.7892 14.5746C11.6649 14.7052 11.5162 14.81 11.3514 14.883C11.1867 14.956 11.0092 14.9957 10.8292 15Z" fill="black"/>
<path d="M12.532 3.28125H0.467963C0.343851 3.28125 0.224823 3.23186 0.137063 3.14396C0.0493031 3.05605 0 2.93682 0 2.8125C0 2.68818 0.0493031 2.56895 0.137063 2.48104C0.224823 2.39314 0.343851 2.34375 0.467963 2.34375H12.532C12.6561 2.34375 12.7752 2.39314 12.8629 2.48104C12.9507 2.56895 13 2.68818 13 2.8125C13 2.93682 12.9507 3.05605 12.8629 3.14396C12.7752 3.23186 12.6561 3.28125 12.532 3.28125Z" fill="black"/>
<path d="M7.95532 5.15625H8.89125V12.1875H7.95532V5.15625Z" fill="black"/>
<path d="M4.21167 5.15625H5.1476V12.1875H4.21167V5.15625Z" fill="black"/>
<path d="M8.8913 1.80937H8.00217V0.9375H5.1008V1.80937H4.21167V0.9375C4.21137 0.696772 4.30353 0.465153 4.46905 0.290625C4.63457 0.116097 4.86078 0.0120362 5.1008 0H8.00217C8.24219 0.0120362 8.46839 0.116097 8.63392 0.290625C8.79944 0.465153 8.8916 0.696772 8.8913 0.9375V1.80937Z" fill="black"/>
</svg>
