<svg width="15" height="11" viewBox="0 0 15 11" fill="none" xmlns="http://www.w3.org/2000/svg">
<path d="M8.75273 6.75272C8.59043 6.92689 8.39472 7.06658 8.17727 7.16347C7.95982 7.26036 7.72508 7.31246 7.48705 7.31666C7.24903 7.32086 7.0126 7.27708 6.79186 7.18792C6.57112 7.09876 6.37061 6.96605 6.20227 6.79772C6.03394 6.62938 5.90123 6.42887 5.81207 6.20813C5.72291 5.9874 5.67913 5.75096 5.68333 5.51294C5.68753 5.27491 5.73963 5.04017 5.83652 4.82272C5.93341 4.60527 6.0731 4.40956 6.24727 4.24727M11.01 9.00999C9.99989 9.77995 8.76993 10.2065 7.5 10.2273C3.36364 10.2273 1 5.49999 1 5.49999C1.73503 4.1302 2.75449 2.93344 3.99 1.98999L11.01 9.00999ZM6.25909 0.914538C6.66583 0.81933 7.08226 0.771738 7.5 0.77272C11.6364 0.77272 14 5.49999 14 5.49999C13.6413 6.17103 13.2135 6.80279 12.7236 7.38499L6.25909 0.914538Z" stroke="black" stroke-linecap="round" stroke-linejoin="round"/>
<path transform="translate(0 -2)" d="M1 1L14 14" stroke="black" stroke-linecap="round" stroke-linejoin="round"/>
</svg>
