<svg width="138" height="138" viewBox="0 0 138 138" fill="none" xmlns="http://www.w3.org/2000/svg">
<circle cx="69" cy="69" r="66" fill="white"/>
<path fill-rule="evenodd" clip-rule="evenodd" d="M68.9999 131.1C103.296 131.1 131.1 103.296 131.1 68.9999C131.1 34.7035 103.296 6.89999 68.9999 6.89999C34.7035 6.89999 6.89999 34.7035 6.89999 68.9999C6.89999 103.296 34.7035 131.1 68.9999 131.1ZM68.9999 138C107.108 138 138 107.108 138 68.9999C138 30.8912 107.108 0 68.9999 0C30.8912 0 0 30.8912 0 68.9999C0 107.108 30.8912 138 68.9999 138Z" fill="#75787B"/>
<path d="M27.5996 109.123C27.5996 105.56 30.263 102.548 33.8096 102.154C60.4263 99.2081 77.6935 99.4737 104.252 102.22C105.578 102.359 106.835 102.882 107.869 103.724C108.903 104.565 109.67 105.69 110.075 106.961C110.48 108.231 110.507 109.592 110.152 110.877C109.796 112.163 109.075 113.317 108.074 114.198C76.731 141.519 58.8186 141.143 29.8076 114.226C28.3931 112.915 27.5996 111.052 27.5996 109.127V109.123Z" fill="#75787B"/>
<path fill-rule="evenodd" clip-rule="evenodd" d="M103.897 105.649C77.5494 102.924 60.5306 102.668 34.1864 105.584C33.3193 105.685 32.5198 106.102 31.9412 106.756C31.3626 107.409 31.0454 108.254 31.0504 109.127C31.0504 110.113 31.4609 111.048 32.1544 111.697C46.534 125.035 57.429 131.062 68.0792 131.1C78.7673 131.138 90.2488 125.159 105.808 111.6C106.303 111.16 106.658 110.586 106.833 109.948C107.007 109.309 106.992 108.634 106.789 108.004C106.587 107.374 106.206 106.817 105.692 106.399C105.179 105.982 104.555 105.722 103.897 105.653V105.649ZM33.4309 98.725C60.327 95.7476 77.8461 96.0167 104.611 98.7871C106.606 98.9953 108.497 99.7808 110.053 101.047C111.609 102.314 112.761 104.006 113.37 105.918C113.978 107.829 114.016 109.877 113.479 111.809C112.942 113.742 111.853 115.476 110.345 116.8C94.5613 130.558 81.4169 138.051 68.0585 138C54.6622 137.951 42.0973 130.33 27.4659 116.755C26.4183 115.779 25.5832 114.598 25.0127 113.285C24.4423 111.971 24.1487 110.555 24.1504 109.123C24.1454 106.551 25.0895 104.067 26.802 102.148C28.5144 100.229 30.8747 99.0087 33.4309 98.7215V98.725Z" fill="#75787B"/>
<path d="M96.6003 55.1999C96.6003 62.5199 93.6924 69.54 88.5164 74.716C83.3405 79.892 76.3203 82.7998 69.0003 82.7998C61.6804 82.7998 54.6602 79.892 49.4842 74.716C44.3082 69.54 41.4004 62.5199 41.4004 55.1999C41.4004 47.8799 44.3082 40.8598 49.4842 35.6838C54.6602 30.5078 61.6804 27.5999 69.0003 27.5999C76.3203 27.5999 83.3405 30.5078 88.5164 35.6838C93.6924 40.8598 96.6003 47.8799 96.6003 55.1999V55.1999Z" fill="#75787B"/>
<path fill-rule="evenodd" clip-rule="evenodd" d="M69.0003 75.8999C74.4903 75.8999 79.7554 73.719 83.6374 69.837C87.5194 65.955 89.7003 60.6899 89.7003 55.1999C89.7003 49.7099 87.5194 44.4448 83.6374 40.5628C79.7554 36.6808 74.4903 34.4999 69.0003 34.4999C63.5104 34.4999 58.2452 36.6808 54.3633 40.5628C50.4813 44.4448 48.3004 49.7099 48.3004 55.1999C48.3004 60.6899 50.4813 65.955 54.3633 69.837C58.2452 73.719 63.5104 75.8999 69.0003 75.8999V75.8999ZM69.0003 82.7998C76.3203 82.7998 83.3405 79.892 88.5164 74.716C93.6924 69.54 96.6003 62.5199 96.6003 55.1999C96.6003 47.8799 93.6924 40.8598 88.5164 35.6838C83.3405 30.5078 76.3203 27.5999 69.0003 27.5999C61.6804 27.5999 54.6602 30.5078 49.4842 35.6838C44.3082 40.8598 41.4004 47.8799 41.4004 55.1999C41.4004 62.5199 44.3082 69.54 49.4842 74.716C54.6602 79.892 61.6804 82.7998 69.0003 82.7998V82.7998Z" fill="#75787B"/>
</svg>
