<svg width="61" height="61" viewBox="0 0 61 61" fill="none" xmlns="http://www.w3.org/2000/svg">
<path d="M30.4998 3.38892C25.1377 3.38892 19.8961 4.97895 15.4377 7.95796C10.9793 10.937 7.50437 15.1711 5.45239 20.1251C3.40042 25.079 2.86353 30.5301 3.90962 35.7891C4.9557 41.0482 7.53779 45.8789 11.3293 49.6705C15.1209 53.462 19.9516 56.0441 25.2107 57.0902C30.4697 58.1363 35.9209 57.5994 40.8748 55.5474C45.8287 53.4955 50.0629 50.0206 53.0419 45.5622C56.0209 41.1038 57.6109 35.8621 57.6109 30.5C57.6109 23.3097 54.7546 16.4139 49.6703 11.3296C44.5859 6.24526 37.6901 3.38892 30.4998 3.38892V3.38892ZM30.4998 54.2223C25.808 54.2223 21.2215 52.831 17.3204 50.2243C13.4193 47.6177 10.3788 43.9128 8.58332 39.5781C6.78784 35.2435 6.31806 30.4737 7.23339 25.8721C8.14872 21.2704 10.408 17.0435 13.7257 13.7259C17.0433 10.4083 21.2702 8.14895 25.8718 7.23362C30.4735 6.31829 35.2432 6.78807 39.5779 8.58355C43.9126 10.379 47.6175 13.4196 50.2241 17.3207C52.8307 21.2218 54.222 25.8082 54.222 30.5C54.222 36.7916 51.7227 42.8254 47.2739 47.2742C42.8252 51.723 36.7913 54.2223 30.4998 54.2223Z" fill="#1A68BF"/>
<path d="M42.6315 27.2466C44.316 27.2466 45.6815 25.8811 45.6815 24.1966C45.6815 22.5121 44.316 21.1466 42.6315 21.1466C40.9471 21.1466 39.5815 22.5121 39.5815 24.1966C39.5815 25.8811 40.9471 27.2466 42.6315 27.2466Z" fill="#1A68BF"/>
<path d="M19.3327 27.2466C21.0172 27.2466 22.3827 25.8811 22.3827 24.1966C22.3827 22.5121 21.0172 21.1466 19.3327 21.1466C17.6482 21.1466 16.2827 22.5121 16.2827 24.1966C16.2827 25.8811 17.6482 27.2466 19.3327 27.2466Z" fill="#1A68BF"/>
<path d="M30.7709 33.8889C28.34 33.8893 25.9445 34.4709 23.7839 35.585C21.6234 36.6992 19.7605 38.3137 18.3506 40.2939C18.09 40.6602 17.9855 41.115 18.0602 41.5583C18.1349 42.0015 18.3826 42.397 18.7488 42.6577C19.1151 42.9183 19.5699 43.0228 20.0132 42.9481C20.4565 42.8734 20.8519 42.6257 21.1126 42.2595C22.196 40.7377 23.6235 39.4934 25.2789 38.6278C26.9343 37.7622 28.7708 37.2998 30.6387 37.2784C32.5066 37.2569 34.3532 37.6769 36.028 38.5042C37.7029 39.3315 39.1586 40.5427 40.2767 42.0392C40.5464 42.3987 40.9478 42.6364 41.3927 42.6999C41.8375 42.7635 42.2894 42.6477 42.649 42.3781C43.0085 42.1084 43.2462 41.707 43.3097 41.2622C43.3733 40.8173 43.2575 40.3654 42.9879 40.0059C41.5674 38.1065 39.7235 36.5646 37.6027 35.5027C35.4819 34.4408 33.1427 33.8883 30.7709 33.8889Z" fill="#1A68BF"/>
</svg>
