<svg width="16" height="14" viewBox="0 0 16 14" fill="none" xmlns="http://www.w3.org/2000/svg">
<path d="M6.53061 12.0816C6.53061 12.1088 6.53401 12.1769 6.54082 12.2857C6.54762 12.3946 6.54932 12.4847 6.54592 12.5561C6.54252 12.6276 6.53231 12.7075 6.51531 12.7959C6.4983 12.8844 6.46429 12.9507 6.41327 12.9949C6.36224 13.0391 6.29252 13.0612 6.20408 13.0612H2.93878C2.12925 13.0612 1.43707 12.7738 0.862245 12.199C0.287415 11.6241 0 10.932 0 10.1224V2.93878C0 2.12925 0.287415 1.43707 0.862245 0.862245C1.43707 0.287415 2.12925 0 2.93878 0H6.20408C6.29252 0 6.36905 0.0323129 6.43367 0.0969388C6.4983 0.161565 6.53061 0.238095 6.53061 0.326531C6.53061 0.353741 6.53401 0.421769 6.54082 0.530612C6.54762 0.639456 6.54932 0.729592 6.54592 0.80102C6.54252 0.872449 6.53231 0.952381 6.51531 1.04082C6.4983 1.12925 6.46429 1.19558 6.41327 1.2398C6.36224 1.28401 6.29252 1.30612 6.20408 1.30612H2.93878C2.4898 1.30612 2.10544 1.46599 1.78571 1.78571C1.46599 2.10544 1.30612 2.4898 1.30612 2.93878V10.1224C1.30612 10.5714 1.46599 10.9558 1.78571 11.2755C2.10544 11.5952 2.4898 11.7551 2.93878 11.7551H6.12245L6.2398 11.7653L6.35714 11.7959L6.43878 11.852L6.5102 11.9439L6.53061 12.0816ZM16 6.53061C16 6.70748 15.9354 6.86054 15.8061 6.9898L10.2551 12.5408C10.1258 12.6701 9.97279 12.7347 9.79592 12.7347C9.61905 12.7347 9.46599 12.6701 9.33673 12.5408C9.20748 12.4116 9.14286 12.2585 9.14286 12.0816V9.14286H4.57143C4.39456 9.14286 4.2415 9.07823 4.11224 8.94898C3.98299 8.81973 3.91837 8.66667 3.91837 8.4898V4.57143C3.91837 4.39456 3.98299 4.2415 4.11224 4.11224C4.2415 3.98299 4.39456 3.91837 4.57143 3.91837H9.14286V0.979592C9.14286 0.802721 9.20748 0.64966 9.33673 0.520408C9.46599 0.391156 9.61905 0.326531 9.79592 0.326531C9.97279 0.326531 10.1258 0.391156 10.2551 0.520408L15.8061 6.07143C15.9354 6.20068 16 6.35374 16 6.53061Z" fill="white"/>
</svg>
