<svg width="16" height="16" viewBox="0 0 16 16" fill="none" xmlns="http://www.w3.org/2000/svg">
<path d="M2.22505 0.810985C2.03645 0.628827 1.78384 0.528033 1.52165 0.530311C1.25945 0.53259 1.00864 0.637759 0.82323 0.823167C0.637822 1.00858 0.532653 1.25939 0.530375 1.52158C0.528096 1.78378 0.628891 2.03638 0.811049 2.22499L6.58605 7.99999L0.810049 13.775C0.714538 13.8672 0.638356 13.9776 0.585947 14.0996C0.533538 14.2216 0.505952 14.3528 0.504798 14.4856C0.503645 14.6184 0.528946 14.75 0.579227 14.8729C0.629508 14.9958 0.703761 15.1075 0.797654 15.2014C0.891546 15.2953 1.0032 15.3695 1.12609 15.4198C1.24899 15.4701 1.38067 15.4954 1.51345 15.4942C1.64623 15.4931 1.77745 15.4655 1.89945 15.4131C2.02146 15.3607 2.1318 15.2845 2.22405 15.189L8.00005 9.41399L13.775 15.189C13.9637 15.3711 14.2163 15.4719 14.4784 15.4697C14.7406 15.4674 14.9915 15.3622 15.1769 15.1768C15.3623 14.9914 15.4674 14.7406 15.4697 14.4784C15.472 14.2162 15.3712 13.9636 15.189 13.775L9.41405 7.99999L15.189 2.22499C15.3712 2.03638 15.472 1.78378 15.4697 1.52158C15.4674 1.25939 15.3623 1.00858 15.1769 0.823167C14.9915 0.637759 14.7406 0.53259 14.4784 0.530311C14.2163 0.528033 13.9637 0.628827 13.775 0.810985L8.00005 6.58599L2.22505 0.809985V0.810985Z" fill="black"/>
</svg>
